# xmcd
#
# Track frame offsets:
#       183
#       13578
#       27593
#       43670
#       54543
#       70503
#       91850
#       111025
#       127498
#       142248
#       155155
#       166818
#       180815
#       192278
#
# Disc length: 2887 seconds
#
# Revision: 4
# Processed by: cddbd v1.4PL0 Copyright (c) Steve Scherf et al.
# Submitted via: WhereIsIt 3.55
#
DISCID=c00b450e
DTITLE=Dizionario della canzone italiana - 13 Le signore della canzone
DYEAR=1990
DGENRE=Other
TTITLE0=Mina - Se telefonando
TTITLE1=Mina - E se domani
TTITLE2=Mina - Sono come tu mi vuoi
TTITLE3=Mina - E' l'uomo per te
TTITLE4=Patty Pravo - Tripoli 69
TTITLE5=Patty Pravo - Pazza idea
TTITLE6=Patty Pravo - Pensiero stupendo
TTITLE7=Ornella Vanoni - La musica è finita
TTITLE8=Ornella Vanoni - Domani è un altro giorno
TTITLE9=Ornella Vanoni - La voglia la pazzia
TTITLE10=Milva - La filanda
TTITLE11=Milva - Tabarin
TTITLE12=Iva Zanicchi - Zingara
TTITLE13=Iva Zanicchi - Un fiume amaro
EXTD=
EXTT0=
EXTT1=
EXTT2=
EXTT3=
EXTT4=
EXTT5=
EXTT6=
EXTT7=
EXTT8=
EXTT9=
EXTT10=
EXTT11=
EXTT12=
EXTT13=
PLAYORDER=
